<svg width="32" height="26" viewBox="0 0 32 26" fill="none" xmlns="http://www.w3.org/2000/svg">
<path d="M28.7107 6.47715C28.7311 6.7614 28.7311 7.04571 28.7311 7.32997C28.7311 16 22.1321 25.9899 10.0711 25.9899C6.35534 25.9899 2.90357 24.9137 0 23.0458C0.52794 23.1067 1.0355 23.127 1.58376 23.127C4.64971 23.127 7.47209 22.0915 9.72591 20.325C6.84265 20.264 4.42639 18.3757 3.59389 15.7767C4.00002 15.8376 4.40608 15.8782 4.83252 15.8782C5.42133 15.8782 6.01021 15.7969 6.5584 15.6549C3.55333 15.0457 1.29944 12.4061 1.29944 9.21829V9.1371C2.17251 9.62441 3.18783 9.92898 4.26389 9.96954C2.49738 8.79185 1.34007 6.78171 1.34007 4.50758C1.34007 3.28933 1.66488 2.17257 2.23345 1.19794C5.4619 5.17765 10.3147 7.77659 15.7563 8.06091C15.6548 7.57359 15.5939 7.06603 15.5939 6.5584C15.5939 2.94414 18.5178 4.57765e-08 22.1523 4.57765e-08C24.0406 4.57765e-08 25.7462 0.791878 26.9442 2.07107C28.4264 1.78682 29.8477 1.23857 31.1066 0.487315C30.6192 2.0102 29.5837 3.28939 28.2234 4.10152C29.5432 3.95945 30.8224 3.59389 32 3.08632C31.1067 4.38577 29.9899 5.54308 28.7107 6.47715Z" fill="#1282C3"/>
</svg>
