<svg width="29" height="32" viewBox="0 0 29 32" fill="none" xmlns="http://www.w3.org/2000/svg">
<path d="M23.1429 20.5571H22.2V23.0357C20.45 24.6857 18.1786 25.5929 15.7786 25.5929C10.55 25.5929 6.32143 21.2929 6.32143 15.9929C6.32143 10.7 10.55 6.39286 15.7786 6.39286C18.3 6.39286 20.6786 7.39286 22.4643 9.20714L26.9143 4.68571C23.9286 1.66429 19.9786 0 15.7643 0C7 0 0 7.18571 0 16C0 24.75 6.92857 32 15.7643 32C20.2786 32 24.6571 30.1286 27.9786 26.1071C27.8357 24.1357 27.0214 20.5571 23.1429 20.5571ZM22.2786 12.5214H14.6857V18.8786H23.1429C25.5357 18.8786 27.4643 19.9571 28.5714 21.8643V19.6786C28.5714 15.0214 25.6857 12.5214 22.2786 12.5214Z" fill="#1282C3"/>
</svg>
